<?xml version="1.0" encoding="utf-8"?>
<!-- Generator: Adobe Illustrator 26.3.1, SVG Export Plug-In . SVG Version: 6.00 Build 0)  -->
<svg version="1.1" id="Capa_1" xmlns="http://www.w3.org/2000/svg" xmlns:xlink="http://www.w3.org/1999/xlink" x="0px" y="0px"
	 viewBox="0 0 576 512" style="enable-background:new 0 0 576 512;" xml:space="preserve">
<style type="text/css">
	.st0{fill:#BBBBBB;}
</style>
<path class="st0" d="M128,64h192V16c0-8.8,7.2-16,16-16s16,7.2,16,16v48h32c35.3,0,64,28.7,64,64v64H32v256c0,17.7,14.3,32,32,32
	h194.5l-1.1,4.2c-2.3,9.4-1.7,19,1.4,27.8H64c-35.3,0-64-28.7-64-64V128c0-35.3,28.6-64,64-64h32V16c0-8.8,7.2-16,16-16
	s16,7.2,16,16V64z M32,128v32h384v-32c0-17.7-14.3-32-32-32H64C46.3,96,32,110.3,32,128z M240,352c8.8,0,16,7.2,16,16s-7.2,16-16,16
	H112c-8.8,0-16-7.2-16-16s7.2-16,16-16H240z M96,272c0-8.8,7.2-16,16-16h224c8.8,0,16,7.2,16,16s-7.2,16-16,16H112
	C103.2,288,96,280.8,96,272z M473.5,241.4c18.8-18.8,49.2-18.8,67.9,0l17.4,17.3c18.7,18.8,18.7,49.2,0,67.9L405.1,480.3
	c-6.2,6.2-13.9,10.5-22.3,11.8l-74.9,19.6c-5.5,1.3-11.2-0.3-15.2-4.2c-4-4-5.6-9.8-4.2-15.2l18.7-74.9c2.1-8.5,6.5-16.2,12.6-22.3
	L473.5,241.4z M518.8,264c-6.3-6.2-16.4-6.2-22.6,0l-24.9,24.8l40,40l24.9-25.7c6.2-5.4,6.2-15.5,0-21.7L518.8,264z M338.2,425.1
	l-13.1,49.1l49.9-12.3c2.8-0.7,5.4-2.1,7.4-4.2l106.3-106.3l-40-39.9L342.5,417.7C340.4,419.8,338.9,422.3,338.2,425.1L338.2,425.1z
	"/>
</svg>
