<?xml version="1.0" encoding="utf-8"?>
<!-- Generator: Adobe Illustrator 26.3.1, SVG Export Plug-In . SVG Version: 6.00 Build 0)  -->
<svg version="1.1" id="Capa_1" xmlns="http://www.w3.org/2000/svg" xmlns:xlink="http://www.w3.org/1999/xlink" x="0px" y="0px"
	 viewBox="0 0 640 512" style="enable-background:new 0 0 640 512;" xml:space="preserve">
<style type="text/css">
	.st0{fill:#BBBBBB;}
</style>
<path class="st0" d="M319.9,320c57.4,0,103.1-46.6,103.1-104s-46.5-104-103.1-104c-57.4,0-103.1,46.6-103.1,104
	C215.9,273.4,262.5,320,319.9,320z M319.9,144c39.7,0,72,32.3,72,72s-32.4,72-72,72s-72-32.3-72-72S280.2,144,319.9,144z M369.9,352
	h-99.8C191.6,352,128,411.7,128,485.3c0,14.8,12.7,26.7,28.4,26.7h327.2c15.7,0,28.4-11.9,28.4-26.7C512,411.7,448.4,352,369.9,352z
	 M160.2,480c3-53.4,51.2-96,109.1-96h100.6c58.8,0,106.9,42.6,109.1,96H160.2z M512,160c44.2,0,80-35.8,80-80S556.2,0,512,0
	c-44.2,0-80,35.8-80,80S467.8,160,512,160z M512,32c26.5,0,48,21.5,48,48s-21.5,48-48,48s-48-21.5-48-48S485.5,32,512,32z M128,160
	c44.2,0,80-35.8,80-80S172.2,0,128,0C83.8,0,48,35.8,48,80S83.8,160,128,160z M128,32c26.5,0,48,21.5,48,48s-21.5,48-48,48
	s-48-21.5-48-48S101.5,32,128,32z M561.1,192H496c-11.2,0-22.1,2.5-32.5,7.4c-8,3.8-11.4,13.3-7.6,21.3s13.4,11.4,21.3,7.6
	c6.1-2.8,12.4-4.3,18.8-4.3h65.1c25,0,46.9,22.7,46.9,50.7V288c0,8.8,7.2,16,16,16s16-7.2,16-16v-13.3
	C640,229.1,604.6,192,561.1,192z M162.8,228.3c7.9,3.8,17.5,0.4,21.3-7.6c3.8-8,0.4-17.5-7.6-21.3c-10.4-4.9-21.3-7.4-32.5-7.4H78.9
	C35.4,192,0,229.1,0,274.7V288c0,8.8,7.2,16,16,16s16-7.2,16-16v-13.3c0-28,21-50.7,46.9-50.7H144
	C150.4,224,156.7,225.5,162.8,228.3z"/>
</svg>
