<?xml version="1.0" encoding="utf-8"?>
<!-- Generator: Adobe Illustrator 26.3.1, SVG Export Plug-In . SVG Version: 6.00 Build 0)  -->
<svg version="1.1" id="Capa_1" xmlns="http://www.w3.org/2000/svg" xmlns:xlink="http://www.w3.org/1999/xlink" x="0px" y="0px"
	 viewBox="0 0 448 512" style="enable-background:new 0 0 448 512;" xml:space="preserve">
<path d="M164.2,39.5L148.9,64h150.2l-15.3-24.5c-2.9-4.7-8.1-7.5-13.6-7.5h-92.5c-5.5,0-10.6,2.8-13.6,7.5H164.2z M311,22.6
	L336.9,64H384h32h16c8.8,0,16,7.2,16,16s-7.2,16-16,16h-16v336c0,44.2-35.8,80-80,80H112c-44.2,0-80-35.8-80-80V96H16
	C7.2,96,0,88.8,0,80s7.2-16,16-16h16h32h47.1L137,22.6C145.8,8.5,161.2,0,177.7,0h92.5C286.8,0,302.1,8.5,311,22.6L311,22.6z M64,96
	v336c0,26.5,21.5,48,48,48h224c26.5,0,48-21.5,48-48V96H64z M144,176v224c0,8.8-7.2,16-16,16s-16-7.2-16-16V176c0-8.8,7.2-16,16-16
	S144,167.2,144,176z M240,176v224c0,8.8-7.2,16-16,16s-16-7.2-16-16V176c0-8.8,7.2-16,16-16S240,167.2,240,176z M336,176v224
	c0,8.8-7.2,16-16,16s-16-7.2-16-16V176c0-8.8,7.2-16,16-16S336,167.2,336,176z"/>
</svg>
