<?xml version="1.0" encoding="utf-8"?>
<!-- Generator: Adobe Illustrator 26.3.1, SVG Export Plug-In . SVG Version: 6.00 Build 0)  -->
<svg version="1.1" id="Capa_1" xmlns="http://www.w3.org/2000/svg" xmlns:xlink="http://www.w3.org/1999/xlink" x="0px" y="0px"
	 viewBox="0 0 448 448" style="enable-background:new 0 0 448 448;" xml:space="preserve">
<style type="text/css">
	.st0{fill-rule:evenodd;clip-rule:evenodd;}
	.st1{fill:#211915;}
	.st2{fill-rule:evenodd;clip-rule:evenodd;fill:none;}
</style>
<g>
	<g>
		<g transform="translate(0,-952.36218)">
			<path class="st0" d="M100.4,1013.4c9.3,15.8,17.5,30.6,27.8,48.1c-3.7,2.1-7.3,4.3-11,6.4l12.3,21.1l2.6-1.4
				c4.7-2.7,9.8-3.8,14.6-3.7c1.6,0,3.2,0.3,4.7,0.5c6,1,11.4,3.5,14.5,8.8c1.1,1.9,2.2,3.8,3.2,5.7c3.1-0.6,6.1-1,9.2-0.9
				c13.9,0.3,27.4,7.4,34.8,20.1l80.2,138.2c5.7,9.8,2,22.5-7.8,28.1c-30.4,17.4-60.8,34.8-91.1,52.3c-9.8,5.7-22.4,2.4-28.1-7.2
				c-23.4-41.5-52.9-90-80.4-138.4c-9-15.5-6.3-34.7,5.3-47.5c-1-1.8-2.2-3.8-3.2-5.5c-3.1-5.3-2.6-11.3-0.5-17
				c2.1-5.7,6.3-11.3,12.6-14.9l2.5-1.4l-12.2-21.4c-3.8,2.2-7.5,4.3-11.3,6.6c-2.1-3.6-4.2-7.3-6.2-10.9
				c-12.5,7.2-25,14.3-37.4,21.5C31,1092.6,25.3,1083,20,1074c12.6-7.1,25.1-14.3,37.7-21.5c-2.1-3.7-4.3-7.3-6.5-10.9
				C65.8,1033.2,83.5,1023,100.4,1013.4L100.4,1013.4z M68.3,1046.1c4.6,7.9,10.2,17.7,15.5,26.8l27.4-15.8l-15.5-26.8L68.3,1046.1z
				 M37,1078.5l3,5l26.8-15.3l-2.8-5.1L37,1078.5z M101.2,1077.1l12.2,21.4l5.4-3.1l-12.4-21.2L101.2,1077.1z M146.5,1096.3
				c-2.6,0-5.5,0.5-8.2,2.1l-32,18.4c-3.4,1.9-5.8,5.3-7,8.5c-1.2,3.2-0.8,6.2-0.5,6.6c0.7,1.1,1.5,2.6,2.3,3.9
				c17.2-10.1,37-21.4,56.2-32.6l-2.1-3.6c-0.3-0.5-2.7-2.4-6.1-3C148.3,1096.4,147.4,1096.3,146.5,1096.3L146.5,1096.3z
				 M176.7,1110.3c-4.6,0.1-9.3,1.4-13.6,3.9c-18.6,10.5-37,21.3-55.5,31.9c-13.8,7.8-18.5,25.4-10.7,38.7l5.2,9l105.5-60.6
				c-1.8-3-3.5-6.1-5.3-9C196.8,1115,186.9,1110,176.7,1110.3L176.7,1110.3z M108.3,1204.5l47.2,81.3l105.5-60.6l-47.2-81.3
				L108.3,1204.5z M161.7,1296.5l15.4,26.5c2.2,3.8,7.1,5.2,11.1,2.8c30.2-17.5,60.8-34.9,91.1-52.3c4-2.3,5.5-7.3,3.2-11.2
				l-15.4-26.5L161.7,1296.5z"/>
			<path class="st0" d="M32.5,1135.3l4.6,4.8c17.2,18,26.7,39.6,27.1,58c0.2,9.2-2,17.8-7.4,24.3c-5.4,6.5-14,10.3-24.2,10.3
				c-10.3,0-19-3.4-24.7-9.6c-5.7-6.2-8.1-14.6-7.9-23.7c0.3-18.1,10.1-39.6,28-59.2L32.5,1135.3L32.5,1135.3z M32.7,1153.8
				c-13.3,16.4-20.1,33.6-20.3,45.9c-0.1,6.8,1.6,11.8,4.7,15.2c3.1,3.3,7.7,5.5,15.5,5.5c7.4,0,11.7-2.2,14.6-5.8
				c3-3.6,4.7-9.1,4.5-16.2C51.5,1185.6,45,1168.7,32.7,1153.8L32.7,1153.8z"/>
		</g>
		<rect x="330" y="217.5" class="st1" width="118" height="13"/>
	</g>
	<rect class="st2" width="448" height="448"/>
</g>
</svg>
