<?xml version="1.0" encoding="utf-8"?>
<!-- Generator: Adobe Illustrator 26.3.1, SVG Export Plug-In . SVG Version: 6.00 Build 0)  -->
<svg version="1.1" id="Capa_1" xmlns="http://www.w3.org/2000/svg" xmlns:xlink="http://www.w3.org/1999/xlink" x="0px" y="0px"
	 viewBox="0 0 448 448" style="enable-background:new 0 0 448 448;" xml:space="preserve">
<style type="text/css">
	.st0{fill:#7870E2;}
	.st1{fill:none;}
</style>
<path class="st0" d="M56,84c-15.5,0-28,12.5-28,28v34.9l171.2,125.5c14.8,10.9,34.9,10.9,49.7,0L420,146.9V112c0-15.5-12.5-28-28-28
	H56z M28,181.7V336c0,15.5,12.5,28,28,28h336c15.5,0,28-12.5,28-28V181.7L265.4,295c-24.7,18-58.2,18-82.8,0L28,181.7z M0,112
	c0-30.9,25.1-56,56-56h336c30.9,0,56,25.1,56,56v224c0,30.9-25.1,56-56,56H56c-30.9,0-56-25.1-56-56V112z"/>
<rect class="st1" width="448" height="448"/>
</svg>
