<?xml version="1.0" encoding="utf-8"?>
<!-- Generator: Adobe Illustrator 26.3.1, SVG Export Plug-In . SVG Version: 6.00 Build 0)  -->
<svg version="1.1" id="Capa_1" xmlns="http://www.w3.org/2000/svg" xmlns:xlink="http://www.w3.org/1999/xlink" x="0px" y="0px"
	 viewBox="0 0 448 512" style="enable-background:new 0 0 448 512;" xml:space="preserve">
<style type="text/css">
	.st0{fill:#1F2B38;}
</style>
<path class="st0" d="M384,80c8.8,0,16,7.2,16,16v320c0,8.8-7.2,16-16,16H64c-8.8,0-16-7.2-16-16V96c0-8.8,7.2-16,16-16H384z M64,32
	C28.7,32,0,60.7,0,96v320c0,35.3,28.7,64,64,64h320c35.3,0,64-28.7,64-64V96c0-35.3-28.7-64-64-64H64z"/>
</svg>
