<?xml version="1.0" encoding="utf-8"?>
<!-- Generator: Adobe Illustrator 26.3.1, SVG Export Plug-In . SVG Version: 6.00 Build 0)  -->
<svg version="1.1" id="Capa_1" xmlns="http://www.w3.org/2000/svg" xmlns:xlink="http://www.w3.org/1999/xlink" x="0px" y="0px"
	 width="32.4px" height="18px" viewBox="0 0 32.4 18" style="enable-background:new 0 0 32.4 18;" xml:space="preserve">
<style type="text/css">
	.st0{fill:#BB0505;}
</style>
<path class="st0" d="M9,3.6c3,0,5.4,2.4,5.4,5.4S12,14.4,9,14.4S3.6,12,3.6,9S6,3.6,9,3.6z M23.4,0H9C4,0,0,4,0,9s4,9,9,9h14.4
	c5,0,9-4,9-9S28.4,0,23.4,0z M23.4,16.2H9C5,16.2,1.8,13,1.8,9S5,1.8,9,1.8h14.4c4,0,7.2,3.2,7.2,7.2S27.4,16.2,23.4,16.2z"/>
</svg>
