<?xml version="1.0" encoding="utf-8"?>
<!-- Generator: Adobe Illustrator 26.3.1, SVG Export Plug-In . SVG Version: 6.00 Build 0)  -->
<svg version="1.1" id="Capa_1" xmlns="http://www.w3.org/2000/svg" xmlns:xlink="http://www.w3.org/1999/xlink" x="0px" y="0px"
	 viewBox="0 0 576 512" style="enable-background:new 0 0 576 512;" xml:space="preserve">
<style type="text/css">
	.st0{fill:#BBBBBB;}
</style>
<path class="st0" d="M80,0c7.5,0,13.9,5.2,15.6,12.4L100,32h441.8c20.3,0,36.5,20.2,30.8,40.7l-54,192
	c-3.9,13.8-16.5,23.3-30.8,23.3H158.2l14.6,64H496c8.8,0,16,7.2,16,16s-7.2,16-16,16H160c-7.5,0-13.9-5.2-15.6-12.5L67.2,32H16
	C7.2,32,0,24.8,0,16C0,7.2,7.2,0,16,0H80z M107.3,64l42.8,192h337.7l54-192H107.3z M128,456c0-30.9,25.1-56,56-56s56,25.1,56,56
	s-25.1,56-56,56S128,486.9,128,456z M184,480c13.3,0,24-10.7,24-24s-10.7-24-24-24s-24,10.7-24,24S170.7,480,184,480z M512,456
	c0,30.9-25.1,56-56,56s-56-25.1-56-56s25.1-56,56-56S512,425.1,512,456z M456,432c-13.3,0-24,10.7-24,24s10.7,24,24,24
	s24-10.7,24-24S469.3,432,456,432z"/>
</svg>
