<svg id="Capa_1" data-name="Capa 1" xmlns="http://www.w3.org/2000/svg" viewBox="0 0 576 384"><path d="M288,224a64,64,0,0,0,0-128c-1,0-1.88.24-2.85.29a47.5,47.5,0,0,1-60.86,60.86c0,1-.29,1.88-.29,2.85A64,64,0,0,0,288,224Zm284.52-46.6C518.29,71.59,410.93,0,288,0S57.68,71.64,3.48,177.41a32.35,32.35,0,0,0,0,29.19C57.71,312.41,165.07,384,288,384s230.32-71.64,284.52-177.41A32.35,32.35,0,0,0,572.52,177.4ZM288,32A128,128,0,1,1,160,160,128,128,0,0,1,288,32Zm0,320C180.64,352,82.54,290.69,32,192A294.76,294.76,0,0,1,161.78,62.67C140.91,89.69,128,123.17,128,160a160,160,0,0,0,320,0c0-36.83-12.91-70.31-33.78-97.33A294.76,294.76,0,0,1,544,192C493.47,290.69,395.36,352,288,352Z"/></svg>