<?xml version="1.0" encoding="utf-8"?>
<!-- Generator: Adobe Illustrator 26.3.1, SVG Export Plug-In . SVG Version: 6.00 Build 0)  -->
<svg version="1.1" id="Capa_1" xmlns="http://www.w3.org/2000/svg" xmlns:xlink="http://www.w3.org/1999/xlink" x="0px" y="0px"
	 viewBox="0 0 640 512" style="enable-background:new 0 0 640 512;" xml:space="preserve">
<style type="text/css">
	.st0{fill:#BBBBBB;}
</style>
<path class="st0" d="M152,0H8C3.6,0,0,3.6,0,8v152c0,4.4,3.6,8,8,8h16c4.4,0,8-3.6,8-8V32h120c4.4,0,8-3.6,8-8V8
	C160,3.6,156.4,0,152,0z M152,480H32V352c0-4.4-3.6-8-8-8H8c-4.4,0-8,3.6-8,8v152c0,4.4,3.6,8,8,8h144c4.4,0,8-3.6,8-8v-16
	C160,483.6,156.4,480,152,480z M632,0H488c-4.4,0-8,3.6-8,8v16c0,4.4,3.6,8,8,8h120v128c0,4.4,3.6,8,8,8h16c4.4,0,8-3.6,8-8V8
	C640,3.6,636.4,0,632,0z M632,344h-16c-4.4,0-8,3.6-8,8v128H488c-4.4,0-8,3.6-8,8v16c0,4.4,3.6,8,8,8h144c4.4,0,8-3.6,8-8V352
	C640,347.6,636.4,344,632,344z M152,96h-48c-4.4,0-8,3.6-8,8v304c0,4.4,3.6,8,8,8h48c4.4,0,8-3.6,8-8V104C160,99.6,156.4,96,152,96z
	 M488,416h48c4.4,0,8-3.6,8-8V104c0-4.4-3.6-8-8-8h-48c-4.4,0-8,3.6-8,8v304C480,412.4,483.6,416,488,416z M408,96h-48
	c-4.4,0-8,3.6-8,8v304c0,4.4,3.6,8,8,8h48c4.4,0,8-3.6,8-8V104C416,99.6,412.4,96,408,96z M216,96h-16c-4.4,0-8,3.6-8,8v304
	c0,4.4,3.6,8,8,8h16c4.4,0,8-3.6,8-8V104C224,99.6,220.4,96,216,96z M280,96h-16c-4.4,0-8,3.6-8,8v304c0,4.4,3.6,8,8,8h16
	c4.4,0,8-3.6,8-8V104C288,99.6,284.4,96,280,96z"/>
</svg>
