<svg id="Capa_1" data-name="Capa 1" xmlns="http://www.w3.org/2000/svg" viewBox="0 0 136 84"><defs><style>.cls-1{fill:#0e78d2;}.cls-2{fill:#fff;}</style></defs><path class="cls-1" d="M57.5,25.3S46,24.5,46.2,7.2c0,0,16.1,5,13.1,15A12.39,12.39,0,0,0,49,10.9S46.9,20.5,57.5,25.3Z"/><path class="cls-1" d="M77.8,25s11.7-.8,11.3-18.1c0,0-16.1,5-13.1,15A12.39,12.39,0,0,1,86.3,10.6C86.4,10.6,88.5,20.2,77.8,25Z"/><path class="cls-1" d="M69.3,30.1S82.1,19.8,67.8,0c0,0-14.6,18.8-3,28,0,0-7.1-11.2,2.8-21.5,0,0,10.1,9.5,1.7,23.6Z"/><path class="cls-1" d="M67.2,31.3s-9.9-13-30.2.7c0,0,18.4,15,28,3.8a17.61,17.61,0,0,1-21.4-3.4c-.1,0,9.7-9.9,23.6-1.1Z"/><path class="cls-1" d="M68.8,35.1S79.5,47.5,99,32.5c0,0-19.3-13.9-28.1-2,0,0,10.9-7.5,21.6,2.1C92.4,32.5,83.2,43.3,68.8,35.1Z"/><path class="cls-2" d="M0,43.7H0a47.76,47.76,0,0,0,5-.1v.1s-.9.3-.7,1l5.8,13.7,1.4-3.5L12.7,52l1-2.3.9-2.4.9-2.3a1,1,0,0,0,.1-.4s0-.4-.8-.8v-.1a10.67,10.67,0,0,0,3.4,0v.1s-.8.2-1.4,1.5l-1.1,2.3-1,2.2-.9,1.9-1,2.2-.8,2-.6,1.4-.7,1.6-.6,1.5s-.7,1.7-.7,1.8H9s-.6-1.5-.7-1.6l-.9-2-.6-1.5-.7-1.5L5.4,54l-.7-1.6L4,50.9l-.6-1.3L2.7,48l-1-2a7.05,7.05,0,0,0-.9-1.5C1,44.5.5,43.9,0,43.7Z"/><path class="cls-2" d="M32.2,60.4l-.5-1.2-1-2.1L30,55.5l-1.3-3-1.4-3.1L26,46.6c-.3-.7-1.2-3-1.2-3h-.4c-.1.3-1.5,3.5-1.5,3.5l-1.3,3-1.2,2.8-1.2,2.6L18.1,58l-1.3,2.7c-.7,1.3-1.4,1.4-1.4,1.4v.1a13.92,13.92,0,0,1,1.7-.1,9.92,9.92,0,0,1,1.7.1v-.1c-.6-.2-.7-.5-.7-.5a1,1,0,0,1,0-.8c.2-.5,1.6-4.3,1.6-4.3h7.7l1.1,2.4a20.53,20.53,0,0,1,.8,1.9,1.75,1.75,0,0,1,.1.5c-.1.4-.8.7-.8.7v.1a5.64,5.64,0,0,0,.7-.1c1.5-.1,3.4,0,3.4,0a4.13,4.13,0,0,1,.9.1V62A3.37,3.37,0,0,1,32.2,60.4ZM20.1,55.6l3.4-8.2L27,55.6Z"/><path class="cls-2" d="M134.5,60.4l-.5-1.2-1-2.1-.7-1.6-1.3-3-1.4-3.1-1.2-2.9c-.3-.7-1.2-3-1.2-3h-.4c-.1.3-1.5,3.5-1.5,3.5L124,49.9l-1.2,2.8-1.2,2.6-1.1,2.5-1.3,2.7c-.7,1.3-1.4,1.4-1.4,1.4V62a13.92,13.92,0,0,1,1.7-.1,9.92,9.92,0,0,1,1.7.1v-.1c-.6-.2-.7-.5-.7-.5a1,1,0,0,1,0-.8c.2-.5,1.6-4.3,1.6-4.3h7.7l1.1,2.4a20.53,20.53,0,0,1,.8,1.9,1.75,1.75,0,0,1,.1.5c-.1.4-.8.7-.8.7v.1a5.64,5.64,0,0,0,.7-.1c1.5-.1,3.4,0,3.4,0a4.13,4.13,0,0,1,.9.1v-.1C135.1,61.6,134.5,60.4,134.5,60.4Zm-12-4.8,3.4-8.2,3.5,8.2Z"/><path class="cls-2" d="M105.9,57.1l-.2.1.4,3.3a7,7,0,0,0,5,1.7s5.8.2,6-5.2a5.26,5.26,0,0,0-1-3.2,9.39,9.39,0,0,0-2.3-1.9,9.26,9.26,0,0,0-1.7-.8,10.84,10.84,0,0,1-3.2-1.9,2.77,2.77,0,0,1-.5-2.7,2.8,2.8,0,0,1,2.9-1.8A5,5,0,0,1,116,48l.1-.1-.3-2.9s-1.1-1.5-4.4-1.4c0,0-5.3-.3-5.4,4.9a4.18,4.18,0,0,0,1.9,3.5,14.8,14.8,0,0,0,2.8,1.6,13.39,13.39,0,0,1,3.1,1.9,3.12,3.12,0,0,1,1,2.2,3.31,3.31,0,0,1-3.6,3.5S107.9,61.4,105.9,57.1Z"/><path class="cls-2" d="M101.8,52.9c-.5-9.5-9.2-9.3-9.2-9.3a10.17,10.17,0,0,0-6,2.1,9.42,9.42,0,0,0-3.2,7.2c.1,4.8,2.8,6.8,2.8,6.8,2.4,2.6,6.4,2.5,6.4,2.5A9,9,0,0,0,98.7,60,9.61,9.61,0,0,0,101.8,52.9Zm-9.2,8.2s-6.1.2-6.4-8.2c0,0-.3-7.9,6.4-8.2,0,0,6.1-.2,6.4,8.2C99,52.9,99.1,60.7,92.6,61.1Z"/><path class="cls-2" d="M78.9,52.6c.1-4-1.8-5.7-1.8-5.7A7.52,7.52,0,0,0,74,44.7a19.52,19.52,0,0,0-2.9-.8,29.8,29.8,0,0,0-3.9-.3c-2.3,0-4,.1-4,.1v.1c.8.1.8,1.1.8,1.1v16a1,1,0,0,1-.2.7,1.13,1.13,0,0,1-.7.4v.1c5.4.3,6.7,0,6.7,0a9.87,9.87,0,0,0,6-2.4A9.38,9.38,0,0,0,78.9,52.6ZM74,59.1s-2,2.4-7,2c0,0-.1-4.4-.1-8.8,0,0,0-5.5.1-7.9,0,0,9.2-1.2,9,8.1C76,52.6,76.1,56.9,74,59.1Z"/><path class="cls-2" d="M55.7,43.6a5.65,5.65,0,0,0,2.2.1s1.3,0,2.2-.1v.1a1.3,1.3,0,0,0-.8,1.2l-.1,2.6V60.8A1.21,1.21,0,0,0,60,62v.1a17.58,17.58,0,0,0-2.2-.1s-1.5,0-2.2.1V62s.6-.3.7-.7c0,0,.1-.1.1-1.1V44.9a1.6,1.6,0,0,0-.7-1.3Z"/><path class="cls-2" d="M34.1,43.7h0c0-.1.6.1,3.6,0,0,0,6.4,7.4,13,14.6,0,0-.2-10.9-.4-13.4a1.33,1.33,0,0,0-.8-1.2v-.1a8.27,8.27,0,0,0,3,0v.1a1.3,1.3,0,0,0-.8,1.2s-.1,1.5-.1,2.1V62.5h-.7S39.8,50,36.2,46c0,0,.1,3.8.1,5v4.4s.1,3.6.2,5.3a1.42,1.42,0,0,0,.8,1.2V62a7.82,7.82,0,0,0-2.9,0v-.1a1.3,1.3,0,0,0,.8-1.2s.1-1.7.1-2.5V45.4C35.4,45.6,35.4,44.4,34.1,43.7Z"/><path class="cls-2" d="M24.8,68.3A7.6,7.6,0,0,1,27,66.6a12.61,12.61,0,0,1,2.9-1.2,10.12,10.12,0,0,1,2.9-.4,4.84,4.84,0,0,1,2.8.6q.9.6.9,1.2c0,1.5-2.1,2.2-2.9,2.2a.44.44,0,0,1-.3-.1c0-.1.1-.2.4-.2,1-.3,2.3-.9,2.3-1.8,0-.7-.9-1-2.9-1a9.29,9.29,0,0,0-2.7.4,10.91,10.91,0,0,0-2.7,1.1,8,8,0,0,0-2.1,1.5,2.25,2.25,0,0,0-.8,1.7c0,.7.4.9,1.5.9,1.3,0,3.1-.6,4.6-.6s2.9.5,2.9,1.9c0,1.7-1.2,3.3-3,4.6a12.76,12.76,0,0,1-3.1,1.5,10.73,10.73,0,0,1-3.5.6c-2,0-3.2-.9-3.2-2,0-1.7,2.8-3,4.8-3,.2,0,.4.1.4.2s-.2.3-.5.4c-3.3.5-4.1,1.6-4.1,2.4s1.1,1.1,2.8,1.1c4,0,9.1-2.4,9.1-5.3a1.05,1.05,0,0,0-.8-1,3.63,3.63,0,0,0-1.9-.3c-1.2,0-2.6.1-3.8.1-1.6,0-2.8-.3-2.8-1.6A2,2,0,0,1,24.8,68.3Z"/><path class="cls-2" d="M32.1,83.3c-.2,0-.3-.1-.3-.4,0-.8.7-2.5,2.1-4.8l.6-1.3.8-1.6c.8-1.5,2.6-4.8,3.1-4.8a.47.47,0,0,1,.5.5A11.2,11.2,0,0,1,37.5,73,14,14,0,0,0,36,75.4c1.3-1.8,2.8-3.5,3.8-3.5.8,0,1.2.7,1.2,1.5a4.39,4.39,0,0,1-.9,2.7,5.78,5.78,0,0,1-2.3,1.8h.7c2.2-.1,3.1-1.4,4.1-3,0-.1.1-.1.2-.1a.22.22,0,0,1,.2.2,8.3,8.3,0,0,1-1.3,2,4.71,4.71,0,0,1-3.2,1.3c-1.7,0-2.7-.6-2.7-1.3a.46.46,0,0,1,.4-.5c.3,0,.5.4,1.2,1a4.8,4.8,0,0,0,2.7-4.3c0-.4-.1-.7-.4-.7-1,0-2.7,2.3-4.4,4.7a34.68,34.68,0,0,0-1.6,4.3C32.9,82.7,32.4,83.3,32.1,83.3Z"/><path class="cls-2" d="M46.1,76.5c-.8,1-1.6,1.8-2.4,1.8-1,0-1.5-.7-1.5-1.8,0-2.1,2.1-4.5,4.1-4.5a1.88,1.88,0,0,1,1.7.8c.4-.5.7-.8,1-.8s.3.1.3.4c0,.7-1.1,2.1-2,3.2A2.54,2.54,0,0,0,47,77c0,.6.2.8.5.8.7,0,1.8-1,2.8-2.7,0-.1.1-.1.2-.1a.22.22,0,0,1,.2.2c0,.3-1.8,3.1-3.4,3.1-.6,0-1.1-.4-1.1-1.4A.76.76,0,0,1,46.1,76.5Zm-2.2,1.3c.4,0,.7-.2,1.2-.7a15.76,15.76,0,0,0,1.2-1.5,12.68,12.68,0,0,1,1.2-2.3,1.12,1.12,0,0,0-1.2-1c-1.5,0-3,2.5-3,4.2C43.2,77.4,43.4,77.8,43.9,77.8Z"/><path class="cls-2" d="M53.7,84a1.89,1.89,0,0,1-2-1.7c0-1.9,2.3-2,4.9-3.2.2-.6.4-1.3.6-2a2.42,2.42,0,0,1-1.8.9,1.29,1.29,0,0,1-1.3-1.4,7.38,7.38,0,0,1,1.8-3.9c.3-.4.5-.5.8-.5a.43.43,0,0,1,.4.4.76.76,0,0,1-.2.4c-1,1.3-1.8,2.5-1.8,3.6,0,.6.1.9.6.9s1.2-.6,1.8-1.3c.8-2.1,2.3-4.4,3.1-4.4.1,0,.2.1.2.3a1.33,1.33,0,0,1-.3.8A14.2,14.2,0,0,1,58,76.2a10.61,10.61,0,0,0-.5,2.3,2.19,2.19,0,0,0,.5-.3,9.76,9.76,0,0,0,3.3-3.4c0-.1.1-.1.2-.1s.1.1.1.2a5.33,5.33,0,0,1-1.4,2,9.16,9.16,0,0,1-2.1,1.7l-.7.4a8.67,8.67,0,0,1-.7,3A3.11,3.11,0,0,1,53.7,84Zm0-.4c.7,0,1.3-.4,1.8-1.4a19.11,19.11,0,0,0,.9-2.6c-2.3,1-3.9,1.1-3.9,2.7C52.4,83.2,52.8,83.6,53.7,83.6Z"/><path class="cls-2" d="M72.3,79.7c-1.5,0-2.3-.5-2.3-1,0-.9,1.4-1.3,2.3-1.4.3-.1.5,0,.5.1s0,.2-.3.2c-.9.1-2.2.5-2.2,1.1,0,.4.7.7,1.8.7,1.7,0,4.6-1.2,4.6-3.3,0-1.5-2.3-1.9-3.9-2.5-2.2,3.2-4.6,5.9-6.5,5.9A2.3,2.3,0,0,1,64,76.9,8.68,8.68,0,0,1,65,73a13.25,13.25,0,0,1,2.9-3.8,14.77,14.77,0,0,1,4.3-2.9,11.67,11.67,0,0,1,5.2-1.2,6,6,0,0,1,2.9.6,1.85,1.85,0,0,1,1.1,1.7c0,2.2-2.4,3.2-4.9,3.7a24,24,0,0,1-2.4.4l-1,1.5h0a22.4,22.4,0,0,1,3.4,1.1A2.11,2.11,0,0,1,78,76C78.1,78.2,74.4,79.7,72.3,79.7Zm-6-.7c1.4,0,3.5-2.8,5.6-6a.94.94,0,0,1-.6-.8c0-.4.7-.7,1.8-.9,1-1.5,2.1-3.1,2.7-3.1.2,0,.4.1.4.3a.37.37,0,0,1-.1.3c-.5.7-.9,1.4-1.4,2.1a13.32,13.32,0,0,0,1.9-.5c2-.6,3.9-1.6,3.9-3.3,0-1-1-1.7-2.9-1.7a10,10,0,0,0-4.7,1.2,16.91,16.91,0,0,0-4.1,2.9,14.77,14.77,0,0,0-2.9,3.8A8.52,8.52,0,0,0,64.8,77C64.7,78.2,65.3,79,66.3,79Zm5.9-6.5h0a4.7,4.7,0,0,0,.6-.9c-.6.1-1,.3-1,.4S71.9,72.4,72.2,72.5Z"/><path class="cls-2" d="M82.4,78.3c-1.8,0-2.7-.9-2.7-2.3A4.52,4.52,0,0,1,84,71.9c1,0,1.5.5,1.5,1.3,0,1.2-1.6,2.6-3.7,2.6-.3,0-.7-.1-1-.1v.4a1.65,1.65,0,0,0,1.7,1.8c1.8,0,2.9-1.1,4-2.9,0-.1.1-.1.2-.1a.22.22,0,0,1,.2.2,6.78,6.78,0,0,1-1.5,2A4.07,4.07,0,0,1,82.4,78.3Zm-1.5-3a4.33,4.33,0,0,1,.5.1c1.7,0,3.1-1.3,3.1-2.4,0-.5-.2-.7-.7-.7C82.8,72.2,81.3,73.6,80.9,75.3Z"/><path class="cls-2" d="M87.3,78.1c-.6,0-1.1-.4-1.1-1.4,0-1.7,1.9-4.7,2.9-6.3,1.4-2.3,2.5-3.7,3-3.7a.22.22,0,0,1,.2.2,8.06,8.06,0,0,1-1.2,2.8,27.55,27.55,0,0,1-2.7,3.7,8.09,8.09,0,0,0-1.3,3.4c0,.5.2.7.5.7.8,0,1.8-.9,2.8-2.6,0-.1.1-.1.2-.1a.22.22,0,0,1,.2.2C90.7,75.3,89,78.1,87.3,78.1Z"/><path class="cls-2" d="M91.1,78.1c-.6,0-1.1-.4-1.1-1.4,0-1.7,1.9-4.7,2.9-6.3,1.4-2.3,2.5-3.7,3-3.7a.22.22,0,0,1,.2.2,8.06,8.06,0,0,1-1.2,2.8,27.55,27.55,0,0,1-2.7,3.7,8.09,8.09,0,0,0-1.3,3.4c0,.5.2.7.5.7.8,0,1.8-.9,2.8-2.6,0-.1.1-.1.2-.1a.22.22,0,0,1,.2.2C94.6,75.3,92.9,78.1,91.1,78.1Z"/><path class="cls-2" d="M96.8,78.3c-1.8,0-2.7-.9-2.7-2.3a4.52,4.52,0,0,1,4.3-4.1c1,0,1.5.5,1.5,1.3,0,1.2-1.6,2.6-3.7,2.6-.3,0-.7-.1-1-.1v.4a1.65,1.65,0,0,0,1.7,1.8c1.8,0,2.9-1.1,4-2.9,0-.1.1-.1.2-.1a.22.22,0,0,1,.2.2,6.78,6.78,0,0,1-1.5,2A4.23,4.23,0,0,1,96.8,78.3Zm-1.5-3a4.33,4.33,0,0,1,.5.1c1.7,0,3.1-1.3,3.1-2.4,0-.5-.2-.7-.7-.7C97.1,72.2,95.7,73.6,95.3,75.3Z"/><path class="cls-2" d="M103.5,79c0,3.2-2.2,5-3.8,5-.9,0-2-.6-2-1.6,0-1.8,2.2-2.2,4.7-3.4v-.3a3.44,3.44,0,0,0-.2-1.6h-.3c-.5,0-.8-.2-.8-.5s.3-.4.6-.4a1.14,1.14,0,0,1,.8.3,4.17,4.17,0,0,0,1.4-2.8c0-.6-.9-.7-1.5-1-1.3,2.7-2.8,4.6-3.2,4.6a.35.35,0,0,1-.2-.1c0-.1,0-.1.1-.2,1-.8,2-2.7,3-4.4a.75.75,0,0,1-.4-.7,1.33,1.33,0,0,1,.3-.8c.2-.3.4-.4.5-.4s.3.2.3.4a3.45,3.45,0,0,1-.3,1.3c1,.5,2.5.4,2.5,1.5a4.15,4.15,0,0,1-2.3,2.9,4,4,0,0,1,.6,1.5l.1-.1a9.79,9.79,0,0,0,3.3-3.4c0-.1.1-.1.2-.1s.1.1.1.2a5.33,5.33,0,0,1-1.4,2,8.7,8.7,0,0,1-2.1,1.7l-.2.1V79Zm-3.7,4.7c1.3,0,2.4-1.8,2.6-4.2-2.2,1-3.9,1.3-3.9,3A1.18,1.18,0,0,0,99.8,83.7Z"/><path class="cls-2" d="M110.5,76.5c-.7,1-1.6,1.8-2.4,1.8-1,0-1.5-.7-1.5-1.8,0-2.1,2.1-4.5,4.1-4.5a1.88,1.88,0,0,1,1.7.8c.4-.5.7-.8,1-.8s.2.1.2.4c0,.7-1.1,2.1-2,3.2a3.93,3.93,0,0,0-.3,1.4c0,.6.2.8.5.8.7,0,1.8-1,2.8-2.7,0-.1.1-.1.2-.1a.22.22,0,0,1,.2.2c0,.3-1.8,3.1-3.4,3.1-.6,0-1.1-.4-1.1-1.4Zm-2.1,1.3c.4,0,.7-.2,1.2-.7a15.76,15.76,0,0,0,1.2-1.5,12.68,12.68,0,0,1,1.2-2.3,1.12,1.12,0,0,0-1.2-1c-1.5,0-3,2.5-3,4.2C107.7,77.4,107.9,77.8,108.4,77.8Z"/></svg>