<?xml version="1.0" encoding="utf-8"?>
<!-- Generator: Adobe Illustrator 26.3.1, SVG Export Plug-In . SVG Version: 6.00 Build 0)  -->
<svg version="1.1" id="Capa_1" xmlns="http://www.w3.org/2000/svg" xmlns:xlink="http://www.w3.org/1999/xlink" x="0px" y="0px"
	 viewBox="0 0 448 448" style="enable-background:new 0 0 448 448;" xml:space="preserve">
<style type="text/css">
	.st0{fill:#7870E2;}
</style>
<path class="st0" d="M264,321.6l-18.6-10.8c-45-25.9-82.3-63.3-108.2-108.2L126.4,184l15.1-15.1l35.6-35.6L136.5,31.7L28,51.4V56
	c0,201,163,364,364,364h4.6l19.7-108.5l-101.6-40.7l-35.6,35.6L264,321.6z M308,238l140,56l-28,154h-28C175.5,448,0,272.5,0,56V28
	L154,0l56,140l-48.7,48.7c23.5,40.7,57.3,74.5,98,98L308,238z"/>
</svg>
