<?xml version="1.0" encoding="utf-8"?>
<!-- Generator: Adobe Illustrator 26.3.1, SVG Export Plug-In . SVG Version: 6.00 Build 0)  -->
<svg version="1.1" id="Capa_1" xmlns="http://www.w3.org/2000/svg" xmlns:xlink="http://www.w3.org/1999/xlink" x="0px" y="0px"
	 viewBox="0 0 640 512" style="enable-background:new 0 0 640 512;" xml:space="preserve">
<style type="text/css">
	.st0{fill:#BBBBBB;}
</style>
<path class="st0" d="M632,384h-24V275.9c0-16.8-6.8-33.3-18.8-45.2l-83.9-83.9c-11.8-12-28.3-18.8-45.2-18.8H416V78.6
	c0-25.7-22.2-46.6-49.4-46.6H49.4C22.2,32,0,52.9,0,78.6v290.8C0,395.1,22.2,416,49.4,416h16.2c-1.1,5.2-1.6,10.5-1.6,16
	c0,44.2,35.8,80,80,80s80-35.8,80-80c0-5.5-0.6-10.8-1.6-16h195.2c-1.1,5.2-1.6,10.5-1.6,16c0,44.2,35.8,80,80,80s80-35.8,80-80
	c0-5.5-0.6-10.8-1.6-16H632c4.4,0,8-3.6,8-8v-16C640,387.6,636.4,384,632,384z M460.1,160c8.4,0,16.7,3.4,22.6,9.4l83.9,83.9
	c0.8,0.8,1.1,1.9,1.8,2.8H416v-96L460.1,160L460.1,160z M144,480c-26.5,0-48-21.5-48-48s21.5-48,48-48s48,21.5,48,48
	S170.5,480,144,480z M207.6,384C193,364.7,170,352,144,352s-49,12.7-63.6,32h-31c-9.6,0-17.4-6.5-17.4-14.6V78.6
	C32,70.5,39.8,64,49.4,64h317.2c9.6,0,17.4,6.5,17.4,14.6V384H207.6z M496,480c-26.5,0-48-21.5-48-48s21.5-48,48-48s48,21.5,48,48
	S522.5,480,496,480z M496,352c-26.1,0-49,12.7-63.6,32H416v-96h160v96h-16.4C545,364.7,522.1,352,496,352L496,352z"/>
</svg>
