<?xml version="1.0" encoding="utf-8"?>
<!-- Generator: Adobe Illustrator 26.3.1, SVG Export Plug-In . SVG Version: 6.00 Build 0)  -->
<svg version="1.1" id="Capa_1" xmlns="http://www.w3.org/2000/svg" xmlns:xlink="http://www.w3.org/1999/xlink" x="0px" y="0px"
	 viewBox="0 0 640 512" style="enable-background:new 0 0 640 512;" xml:space="preserve">
<style type="text/css">
	.st0{fill:#BBBBBB;}
</style>
<path class="st0" d="M627.1,358.8l-16.7-9.6c0.5-4.5,0.7-8.8,0.7-13c0-4.4-0.2-8.8-0.8-13.3l16.7-9.7c10.5-6.1,15.3-18.7,11.6-30
	c-7.2-21.7-18.5-41.2-33.6-58.3c-7.8-8.7-21.8-10.8-31.8-4.9l-17.3,10c-7-5-14.4-9.3-22.2-12.8v-19.9c0-12-8.4-22.5-20.1-25
	c-22.5-4.8-44.9-4.8-67.5,0c-11.6,2.5-20.1,13-20.1,25v19.9c-7.8,3.5-15.2,7.8-22.2,12.8l-17.2-9.9c-10.2-5.9-24.2-3.8-31.9,5
	c-15.1,17-26.4,36.6-33.5,58.2c-3.8,11.3,1.1,24,11.6,30.1l16.7,9.7c-0.5,4.5-0.8,8.9-0.8,13.3c0,4.2,0.2,8.5,0.7,13l-16.6,9.6
	c-10.5,6-15.4,18.7-11.6,30.1c7.2,21.7,18.5,41.2,33.5,58.1c7.7,8.8,21.8,10.9,31.9,5.2l17-9.8c7,5.1,14.6,9.4,22.5,13v19.5
	c0,12,8.4,22.5,20.1,25c11.2,2.4,22.6,3.6,33.7,3.6s22.5-1.2,33.8-3.6c11.6-2.5,20-13,20-25v-19.5c7.9-3.6,15.5-7.9,22.5-13
	l16.9,9.8c10.2,5.9,24.2,3.7,31.9-5c15.1-17,26.4-36.6,33.5-58.2C642.5,377.5,637.7,364.8,627.1,358.8z M577.3,317.5
	c1.2,6.1,1.9,12.3,1.9,18.7c0,6.3-0.8,12.4-1.9,18.4l-2.1,11.1l31.3,18.1c-5.2,13.8-12.5,26.5-21.8,37.8l-31.6-18.2l-8.6,7.4
	c-9.4,8.1-20.2,14.4-32,18.5l-10.7,3.8v36.4c-14.7,2.5-29.1,2.5-43.7,0v-36.4l-10.7-3.8c-11.8-4.2-22.5-10.4-31.9-18.5l-8.6-7.5
	l-31.6,18.2c-9.3-11.3-16.6-24-21.8-37.8l31.3-18.1l-2.1-11.1c-1.1-6-1.9-12.1-1.9-18.4c0-6.4,0.8-12.7,1.9-18.7l2.1-11.2
	l-31.4-18.2c5.2-13.8,12.5-26.5,21.8-37.9l31.9,18.4l8.6-7.4c9.4-8.1,20.1-14.3,31.7-18.3l10.7-3.8v-36.7c14.7-2.5,29.1-2.5,43.7,0
	v36.8l10.7,3.7c11.6,4.1,22.3,10.2,31.7,18.3l8.6,7.4l31.9-18.4c9.3,11.4,16.6,24.1,21.8,37.9l-31.4,18.2L577.3,317.5z M480,280
	c-30.9,0-55.1,25.1-55.1,56s25.1,56,55.1,56s55.1-25.1,55.1-56S510.9,280,480,280z M480,360c-13.2,0-24-10.8-24-24s10.8-24,24-24
	s23.1,10.8,23.1,24S493.2,360,480,360z M368,480H34.7c-1.5,0-2.7-1.2-2.7-2.7C32,399.4,95.4,336,173.3,336H272c8.8,0,16-7.2,16-16
	c0-8.8-7.2-16-16-16h-98.7C77.5,304-0.1,381.6,0,477.4c0,19,15.6,34.6,34.7,34.6H368c8.8,0,16-7.2,16-16
	C384,487.2,376.8,480,368,480z M224,256c70.7,0,128-57.3,128-128S294.7,0,224,0S96,57.3,96,128S153.3,256,224,256z M224,32
	c52.9,0,96,43.1,96,96c0,52.9-43.1,96-96,96s-96-43.1-96-96C128,75.1,171.1,32,224,32z"/>
</svg>
