<?xml version="1.0" encoding="utf-8"?>
<!-- Generator: Adobe Illustrator 26.3.1, SVG Export Plug-In . SVG Version: 6.00 Build 0)  -->
<svg version="1.1" id="Capa_1" xmlns="http://www.w3.org/2000/svg" xmlns:xlink="http://www.w3.org/1999/xlink" x="0px" y="0px"
	 width="32.4px" height="18px" viewBox="0 0 32.4 18" style="enable-background:new 0 0 32.4 18;" xml:space="preserve">
<style type="text/css">
	.st0{fill:#006A1F;}
</style>
<path class="st0" d="M28.8,9c0,3-2.4,5.4-5.4,5.4c-3,0-5.4-2.4-5.4-5.4c0-3,2.4-5.4,5.4-5.4C26.4,3.6,28.8,6,28.8,9z M32.4,9
	c0,5-4,9-9,9H9c-5,0-9-4-9-9s4-9,9-9h14.4C28.4,0,32.4,4,32.4,9z M30.6,9c0-4-3.2-7.2-7.2-7.2H9C5,1.8,1.8,5,1.8,9S5,16.2,9,16.2
	h14.4C27.4,16.2,30.6,13,30.6,9z"/>
</svg>
