<?xml version="1.0" encoding="utf-8"?>
<!-- Generator: Adobe Illustrator 26.3.1, SVG Export Plug-In . SVG Version: 6.00 Build 0)  -->
<svg version="1.1" id="Capa_1" xmlns="http://www.w3.org/2000/svg" xmlns:xlink="http://www.w3.org/1999/xlink" x="0px" y="0px"
	 viewBox="0 0 448 512" style="enable-background:new 0 0 448 512;" xml:space="preserve">
<style type="text/css">
	.st0{fill:#BBBBBB;}
</style>
<path class="st0" d="M224,256c70.7,0,128-57.3,128-128S294.7,0,224,0S96,57.3,96,128S153.3,256,224,256z M224,32
	c52.9,0,96,43.1,96,96c0,52.9-43.1,96-96,96s-96-43.1-96-96C128,75.1,171.1,32,224,32z M274.7,304H173.3C77.6,304,0,381.6,0,477.3
	C0,496.4,15.5,512,34.7,512h378.7c19.1,0,34.6-15.5,34.6-34.7C448,381.6,370.4,304,274.7,304z M413.3,480H34.7
	c-1.5,0-2.7-1.2-2.7-2.7C32,399.4,95.4,336,173.3,336h101.3c78,0,141.4,63.4,141.4,141.3C416,478.8,414.8,480,413.3,480z"/>
</svg>
